<svg style="display: none;" aria-hidden="true" xmlns="http://www.w3.org/2000/svg"
    xmlns:xlink="http://www.w3.org/1999/xlink">
    <symbol viewBox="0 0 170 51" shape-rendering="geometricPrecision" text-rendering="geometricPrecision"
        image-rendering="optimizeQuality" fill-rule="evenodd" clip-rule="evenodd" id="svg-logo">
        <path class="afil0"
            d="M3.15 5.5l40 0 0 40 -40 0 0 -40zm17.89 29.46l-10.89 0 0 -18.91 10.89 0 0 3.28 -6.88 0 0 4.16 6.4 0 0 3.28 -6.4 0 0 4.88 6.88 0 0 3.31zm15.11 -5.25c0,1.71 -0.62,3.05 -1.85,4.04 -1.22,0.98 -2.94,1.47 -5.13,1.47 -2.01,0 -3.8,-0.38 -5.35,-1.14l0 -3.72c1.28,0.57 2.36,0.97 3.24,1.2 0.88,0.24 1.69,0.35 2.42,0.35 0.89,0 1.56,-0.17 2.03,-0.5 0.47,-0.34 0.7,-0.84 0.7,-1.5 0,-0.37 -0.1,-0.71 -0.3,-0.99 -0.21,-0.29 -0.52,-0.57 -0.92,-0.84 -0.4,-0.27 -1.22,-0.69 -2.45,-1.28 -1.15,-0.54 -2.02,-1.06 -2.6,-1.56 -0.58,-0.5 -1.04,-1.09 -1.38,-1.75 -0.35,-0.66 -0.52,-1.44 -0.52,-2.33 0,-1.67 0.56,-2.99 1.7,-3.94 1.13,-0.96 2.7,-1.44 4.7,-1.44 0.98,0 1.92,0.12 2.82,0.35 0.89,0.23 1.82,0.56 2.79,0.98l-1.29 3.12c-1.01,-0.41 -1.84,-0.7 -2.5,-0.86 -0.66,-0.17 -1.31,-0.25 -1.95,-0.25 -0.76,0 -1.34,0.17 -1.75,0.53 -0.4,0.35 -0.61,0.81 -0.61,1.38 0,0.36 0.09,0.67 0.25,0.93 0.17,0.26 0.43,0.51 0.78,0.76 0.36,0.25 1.21,0.69 2.55,1.32 1.77,0.85 2.98,1.7 3.63,2.55 0.66,0.85 0.99,1.89 0.99,3.12z" />
        <path class="afil1"
            d="M66.57 37.63l-13.4 0 0 -23.28 13.4 0 0 4.04 -8.47 0 0 5.12 7.88 0 0 4.05 -7.88 0 0 5.99 8.47 0 0 4.08zm2.9 -6.75l0 -3.98 8.55 0 0 3.98 -8.55 0zm26.2 0.29c0,2.11 -0.77,3.76 -2.28,4.97 -1.51,1.21 -3.61,1.82 -6.31,1.82 -2.48,0 -4.68,-0.47 -6.59,-1.41l0 -4.58c1.57,0.7 2.9,1.19 3.99,1.48 1.08,0.29 2.08,0.43 2.98,0.43 1.09,0 1.92,-0.21 2.49,-0.62 0.59,-0.41 0.87,-1.03 0.87,-1.85 0,-0.45 -0.12,-0.86 -0.38,-1.21 -0.25,-0.36 -0.63,-0.7 -1.12,-1.03 -0.5,-0.33 -1.5,-0.86 -3.02,-1.58 -1.42,-0.67 -2.49,-1.31 -3.2,-1.93 -0.71,-0.61 -1.28,-1.33 -1.7,-2.15 -0.43,-0.81 -0.64,-1.77 -0.64,-2.86 0,-2.06 0.7,-3.68 2.09,-4.86 1.4,-1.18 3.33,-1.76 5.79,-1.76 1.21,0 2.36,0.14 3.47,0.42 1.09,0.29 2.24,0.69 3.44,1.22l-1.59 3.83c-1.24,-0.51 -2.27,-0.86 -3.08,-1.06 -0.82,-0.2 -1.61,-0.31 -2.4,-0.31 -0.93,0 -1.65,0.22 -2.15,0.66 -0.5,0.43 -0.75,1 -0.75,1.7 0,0.44 0.1,0.82 0.3,1.14 0.21,0.32 0.53,0.63 0.97,0.94 0.44,0.3 1.48,0.85 3.13,1.63 2.18,1.04 3.66,2.08 4.47,3.13 0.81,1.05 1.22,2.32 1.22,3.84zm23.27 6.46l-4.91 0 0 -10.04 -9.22 0 0 10.04 -4.93 0 0 -23.28 4.93 0 0 9.13 9.22 0 0 -9.13 4.91 0 0 23.28zm27.01 -11.67c0,3.86 -0.95,6.82 -2.86,8.89 -1.92,2.07 -4.65,3.11 -8.22,3.11 -3.56,0 -6.3,-1.04 -8.21,-3.11 -1.92,-2.07 -2.87,-5.04 -2.87,-8.91 0,-3.88 0.96,-6.84 2.88,-8.88 1.91,-2.05 4.66,-3.07 8.23,-3.07 3.58,0 6.32,1.03 8.21,3.09 1.9,2.06 2.84,5.02 2.84,8.88zm-16.99 0c0,2.61 0.5,4.56 1.48,5.88 0.99,1.32 2.47,1.98 4.43,1.98 3.94,0 5.91,-2.62 5.91,-7.86 0,-5.24 -1.96,-7.86 -5.88,-7.86 -1.96,0 -3.44,0.66 -4.44,1.98 -0.99,1.32 -1.5,3.29 -1.5,5.88zm26.74 -0.65l1.63 0c1.52,0 2.66,-0.3 3.41,-0.91 0.75,-0.59 1.13,-1.47 1.13,-2.62 0,-1.15 -0.32,-2.01 -0.95,-2.56 -0.63,-0.55 -1.62,-0.83 -2.97,-0.83l-2.25 0 0 6.92zm11.15 -3.7c0,2.51 -0.78,4.42 -2.35,5.75 -1.56,1.33 -3.79,1.99 -6.68,1.99l-2.12 0 0 8.28 -4.93 0 0 -23.28 7.43 0c2.83,0 4.98,0.61 6.45,1.82 1.47,1.22 2.2,3.03 2.2,5.44z" />
    </symbol>
    <symbol viewBox="0 0 512 512" id="svg-telegram">
        <rect width="512" height="512" rx="15%" fill="#37aee2" />
        <path fill="#c8daea" d="M199 404c-11 0-10-4-13-14l-32-105 245-144" />
        <path fill="#a9c9dd" d="M199 404c7 0 11-4 16-8l45-43-56-34" />
        <path fill="#f6fbfe"
            d="M204 319l135 99c14 9 26 4 30-14l55-258c5-22-9-32-24-25L79 245c-21 8-21 21-4 26l83 26 190-121c9-5 17-3 11 4" />
    </symbol>
    <symbol viewBox="0 0 512 512" fill="#fff" id="svg-viber">
        <rect width="512" height="512" rx="15%" fill="#665ca7" />
        <path fill="none" stroke="#fff" stroke-linecap="round" stroke-width="10"
            d="M269 186a30 30 0 0 1 31 31m-38-58a64 64 0 0 1 64 67m-73-93a97 97 0 0 1 99 104" />
        <path fill-rule="evenodd"
            d="M95 232c0-91 17-147 161-147s161 56 161 147-17 147-161 147l-26-1-53 63c-4 4-8 1-8-3v-69c-6 0-31-12-38-19-22-23-36-40-36-118zm-30 0c0-126 55-177 191-177s191 51 191 177-55 177-191 177c-10 0-18 0-32-2l-38 43c-7 8-28 11-28-13v-42c-6 0-20-6-39-18-19-13-54-44-54-145zm223 42q10-13 24-4l36 27q8 10-7 28t-28 15q-53-12-102-60t-61-104q0-20 25-34 13-9 22 5l25 35q6 12-7 22c-39 15 51 112 73 70z" />
    </symbol>
    <symbol viewBox="0 0 64 64" id="svg-whatsapp">
        <defs>
            <linearGradient gradientUnits="userSpaceOnUse" id="dlinear-gradient" x1="32" x2="32" y1="4" y2="64.81">
                <stop offset="0" stop-color="#1df47c" />
                <stop offset=".31" stop-color="#12df63" />
                <stop offset=".75" stop-color="#05c443" />
                <stop offset="1" stop-color="#00ba37" />
            </linearGradient>
            <style>
                .cls-1 {
                    fill: url(#linear-gradient)
                }

                .cls-2 {
                    fill: #fff
                }
            </style>
        </defs>
        <g data-name="23-whatsapp" id="d_23-whatsapp">
            <rect class="dcls-1" height="64" rx="11.2" ry="11.2" width="64" />
            <path class="dcls-2"
                d="M27.42,21.38l2,5.43a.76.76,0,0,1-.1.74,10.32,10.32,0,0,1-1.48,1.71.8.8,0,0,0-.16,1.09C28.91,32,32.1,36,36.25,37.43a.79.79,0,0,0,.89-.29l1.66-2.21a.8.8,0,0,1,1-.23L45,37.3a.79.79,0,0,1,.4,1c-.57,1.62-2.36,5.57-6.19,4.93A20.79,20.79,0,0,1,26.4,36c-3.14-3.92-9.34-14,.19-15.14A.8.8,0,0,1,27.42,21.38Z" />
            <path class="dcls-2"
                d="M33.6,54.8a24.21,24.21,0,0,1-11.94-3.13l-12,3.08,4.41-9.91A22,22,0,0,1,10,32C10,19.43,20.59,9.2,33.6,9.2S57.2,19.43,57.2,32,46.61,54.8,33.6,54.8ZM22.29,47.37l.73.45a20.13,20.13,0,0,0,10.58,3c10.81,0,19.6-8.43,19.6-18.8S44.41,13.2,33.6,13.2,14,21.63,14,32a18.13,18.13,0,0,0,4,11.34l.75.95-3.61,6.12Z" />
        </g>
    </symbol>
</svg>